name C:\Users\u0101727\Documents\MyRepositories\upper-imu-dc\OpenSim\subject0\MA\ResultsMA\grid_4nodes_9dim\angles_26.mot
datacolumns 10
datarows 42
range 2605.37000000 2605.78000000
endheader 
time	clav_prot	clav_elev	scapula_abduction	scapula_elevation	scapula_upward_rot	scapula_winging	plane_elv	shoulder_elv	axial_rot	
       2605.37000000	        -50.00000000	         10.00000000	         15.00000000	          3.33333333	         30.00000000	          0.00000000	         90.00000000	        100.00000000	         90.00000000	
       2605.38000000	        -38.33333333	         10.00000000	         15.00000000	          3.33333333	         30.00000000	          0.00000000	         90.00000000	        100.00000000	         90.00000000	
       2605.39000000	        -26.66666667	         10.00000000	         15.00000000	          3.33333333	         30.00000000	          0.00000000	         90.00000000	        100.00000000	         90.00000000	
       2605.40000000	        -15.00000000	         10.00000000	         15.00000000	          3.33333333	         30.00000000	          0.00000000	         90.00000000	        100.00000000	         90.00000000	
       2605.41000000	        -50.00000000	         20.00000000	         15.00000000	          3.33333333	         30.00000000	          0.00000000	         90.00000000	        100.00000000	         90.00000000	
       2605.42000000	        -38.33333333	         20.00000000	         15.00000000	          3.33333333	         30.00000000	          0.00000000	         90.00000000	        100.00000000	         90.00000000	
       2605.43000000	        -26.66666667	         20.00000000	         15.00000000	          3.33333333	         30.00000000	          0.00000000	         90.00000000	        100.00000000	         90.00000000	
       2605.44000000	        -15.00000000	         20.00000000	         15.00000000	          3.33333333	         30.00000000	          0.00000000	         90.00000000	        100.00000000	         90.00000000	
       2605.45000000	        -50.00000000	        -10.00000000	        -40.00000000	         10.00000000	         30.00000000	          0.00000000	         90.00000000	        100.00000000	         90.00000000	
       2605.46000000	        -38.33333333	        -10.00000000	        -40.00000000	         10.00000000	         30.00000000	          0.00000000	         90.00000000	        100.00000000	         90.00000000	
       2605.47000000	        -26.66666667	        -10.00000000	        -40.00000000	         10.00000000	         30.00000000	          0.00000000	         90.00000000	        100.00000000	         90.00000000	
       2605.48000000	        -15.00000000	        -10.00000000	        -40.00000000	         10.00000000	         30.00000000	          0.00000000	         90.00000000	        100.00000000	         90.00000000	
       2605.49000000	        -50.00000000	          0.00000000	        -40.00000000	         10.00000000	         30.00000000	          0.00000000	         90.00000000	        100.00000000	         90.00000000	
       2605.50000000	        -38.33333333	          0.00000000	        -40.00000000	         10.00000000	         30.00000000	          0.00000000	         90.00000000	        100.00000000	         90.00000000	
       2605.51000000	        -26.66666667	          0.00000000	        -40.00000000	         10.00000000	         30.00000000	          0.00000000	         90.00000000	        100.00000000	         90.00000000	
       2605.52000000	        -15.00000000	          0.00000000	        -40.00000000	         10.00000000	         30.00000000	          0.00000000	         90.00000000	        100.00000000	         90.00000000	
       2605.53000000	        -50.00000000	         10.00000000	        -40.00000000	         10.00000000	         30.00000000	          0.00000000	         90.00000000	        100.00000000	         90.00000000	
       2605.54000000	        -38.33333333	         10.00000000	        -40.00000000	         10.00000000	         30.00000000	          0.00000000	         90.00000000	        100.00000000	         90.00000000	
       2605.55000000	        -26.66666667	         10.00000000	        -40.00000000	         10.00000000	         30.00000000	          0.00000000	         90.00000000	        100.00000000	         90.00000000	
       2605.56000000	        -15.00000000	         10.00000000	        -40.00000000	         10.00000000	         30.00000000	          0.00000000	         90.00000000	        100.00000000	         90.00000000	
       2605.57000000	        -50.00000000	         20.00000000	        -40.00000000	         10.00000000	         30.00000000	          0.00000000	         90.00000000	        100.00000000	         90.00000000	
       2605.58000000	        -38.33333333	         20.00000000	        -40.00000000	         10.00000000	         30.00000000	          0.00000000	         90.00000000	        100.00000000	         90.00000000	
       2605.59000000	        -26.66666667	         20.00000000	        -40.00000000	         10.00000000	         30.00000000	          0.00000000	         90.00000000	        100.00000000	         90.00000000	
       2605.60000000	        -15.00000000	         20.00000000	        -40.00000000	         10.00000000	         30.00000000	          0.00000000	         90.00000000	        100.00000000	         90.00000000	
       2605.61000000	        -50.00000000	        -10.00000000	        -21.66666667	         10.00000000	         30.00000000	          0.00000000	         90.00000000	        100.00000000	         90.00000000	
       2605.62000000	        -38.33333333	        -10.00000000	        -21.66666667	         10.00000000	         30.00000000	          0.00000000	         90.00000000	        100.00000000	         90.00000000	
       2605.63000000	        -26.66666667	        -10.00000000	        -21.66666667	         10.00000000	         30.00000000	          0.00000000	         90.00000000	        100.00000000	         90.00000000	
       2605.64000000	        -15.00000000	        -10.00000000	        -21.66666667	         10.00000000	         30.00000000	          0.00000000	         90.00000000	        100.00000000	         90.00000000	
       2605.65000000	        -50.00000000	          0.00000000	        -21.66666667	         10.00000000	         30.00000000	          0.00000000	         90.00000000	        100.00000000	         90.00000000	
       2605.66000000	        -38.33333333	          0.00000000	        -21.66666667	         10.00000000	         30.00000000	          0.00000000	         90.00000000	        100.00000000	         90.00000000	
       2605.67000000	        -26.66666667	          0.00000000	        -21.66666667	         10.00000000	         30.00000000	          0.00000000	         90.00000000	        100.00000000	         90.00000000	
       2605.68000000	        -15.00000000	          0.00000000	        -21.66666667	         10.00000000	         30.00000000	          0.00000000	         90.00000000	        100.00000000	         90.00000000	
       2605.69000000	        -50.00000000	         10.00000000	        -21.66666667	         10.00000000	         30.00000000	          0.00000000	         90.00000000	        100.00000000	         90.00000000	
       2605.70000000	        -38.33333333	         10.00000000	        -21.66666667	         10.00000000	         30.00000000	          0.00000000	         90.00000000	        100.00000000	         90.00000000	
       2605.71000000	        -26.66666667	         10.00000000	        -21.66666667	         10.00000000	         30.00000000	          0.00000000	         90.00000000	        100.00000000	         90.00000000	
       2605.72000000	        -15.00000000	         10.00000000	        -21.66666667	         10.00000000	         30.00000000	          0.00000000	         90.00000000	        100.00000000	         90.00000000	
       2605.73000000	        -50.00000000	         20.00000000	        -21.66666667	         10.00000000	         30.00000000	          0.00000000	         90.00000000	        100.00000000	         90.00000000	
       2605.74000000	        -38.33333333	         20.00000000	        -21.66666667	         10.00000000	         30.00000000	          0.00000000	         90.00000000	        100.00000000	         90.00000000	
       2605.75000000	        -26.66666667	         20.00000000	        -21.66666667	         10.00000000	         30.00000000	          0.00000000	         90.00000000	        100.00000000	         90.00000000	
       2605.76000000	        -15.00000000	         20.00000000	        -21.66666667	         10.00000000	         30.00000000	          0.00000000	         90.00000000	        100.00000000	         90.00000000	
       2605.77000000	        -50.00000000	        -10.00000000	         -3.33333333	         10.00000000	         30.00000000	          0.00000000	         90.00000000	        100.00000000	         90.00000000	
       2605.78000000	        -38.33333333	        -10.00000000	         -3.33333333	         10.00000000	         30.00000000	          0.00000000	         90.00000000	        100.00000000	         90.00000000	
